<?xml version="1.0" encoding="UTF-8" standalone="no"?>
<svg
   xmlns:dc="http://purl.org/dc/elements/1.1/"
   xmlns:cc="http://creativecommons.org/ns#"
   xmlns:rdf="http://www.w3.org/1999/02/22-rdf-syntax-ns#"
   xmlns:svg="http://www.w3.org/2000/svg"
   xmlns="http://www.w3.org/2000/svg"
   xmlns:sodipodi="http://sodipodi.sourceforge.net/DTD/sodipodi-0.dtd"
   xmlns:inkscape="http://www.inkscape.org/namespaces/inkscape"
   viewBox="0 0 640 640"
   version="1.1"
   id="svg717"
   sodipodi:docname="volume.svg"
   inkscape:version="1.0.1 (3bc2e813f5, 2020-09-07, custom)"
   width="640"
   height="640">
  <metadata
     id="metadata723">
    <rdf:RDF>
      <cc:Work
         rdf:about="">
        <dc:format>image/svg+xml</dc:format>
        <dc:type
           rdf:resource="http://purl.org/dc/dcmitype/StillImage" />
        <dc:title></dc:title>
      </cc:Work>
    </rdf:RDF>
  </metadata>
  <defs
     id="defs721" />
  <sodipodi:namedview
     pagecolor="#ffffff"
     bordercolor="#666666"
     borderopacity="1"
     objecttolerance="10"
     gridtolerance="10"
     guidetolerance="10"
     inkscape:pageopacity="0"
     inkscape:pageshadow="2"
     inkscape:window-width="1920"
     inkscape:window-height="1018"
     id="namedview719"
     showgrid="false"
     inkscape:zoom="1"
     inkscape:cx="288"
     inkscape:cy="256"
     inkscape:window-x="0"
     inkscape:window-y="0"
     inkscape:window-maximized="1"
     inkscape:current-layer="svg717"
     inkscape:document-rotation="0" />
  <path
     d="m 247.03,135.04335 -88.97,88.95 H 56 c -13.26,0 -24,10.74 -24,24 v 144 c 0,13.25 10.74,24 24,24 h 102.06 l 88.97,88.95 c 15.03,15.03 40.97,4.47 40.97,-16.97 v -335.96 c 0,-21.46 -25.96,-31.98 -40.97,-16.97 z M 480.35,83.963355 c -11.17,-7.33 -26.18,-4.24 -33.51,6.95 -7.34,11.169995 -4.22,26.179995 6.95,33.509995 66.27,43.49 105.82,116.6 105.82,195.58 0,78.98 -39.55,152.09 -105.82,195.58 -11.17,7.32 -14.29,22.34 -6.95,33.5 7.04,10.71 21.93,14.56 33.51,6.95 79.92,-52.46 127.65,-140.71 127.65,-236.04 0,-95.33 -47.73,-183.57 -127.65,-236.029995 z M 512,319.99335 c 0,-63.53 -32.06,-121.94 -85.77,-156.24 -11.19,-7.14 -26.03,-3.82 -33.12,7.46 -7.09,11.28 -3.78,26.21 7.41,33.36 39.75,25.39 63.48,68.53 63.48,115.42 0,46.89 -23.73,90.03 -63.48,115.42 -11.19,7.14 -14.5,22.07 -7.41,33.36 6.51,10.36 21.12,15.14 33.12,7.46 53.71,-34.3 85.77,-92.7 85.77,-156.24 z m -141.77,-76.87 c -11.58,-6.33 -26.19,-2.16 -32.61,9.45 -6.39,11.61 -2.16,26.2 9.45,32.61 12.91,7.09 20.93,20.44 20.93,34.81 0,14.38 -8.02,27.72 -20.92,34.81 -11.61,6.41 -15.84,21 -9.45,32.61 6.43,11.66 21.05,15.8 32.61,9.45 28.23,-15.55 45.77,-45 45.77,-76.88 0,-31.88 -17.54,-61.32 -45.78,-76.86 z"
     id="path715"
     style="fill:#ffffff" />
</svg>
