<?xml version="1.0" encoding="UTF-8" standalone="no"?>
<svg
   xmlns:dc="http://purl.org/dc/elements/1.1/"
   xmlns:cc="http://creativecommons.org/ns#"
   xmlns:rdf="http://www.w3.org/1999/02/22-rdf-syntax-ns#"
   xmlns:svg="http://www.w3.org/2000/svg"
   xmlns="http://www.w3.org/2000/svg"
   xmlns:sodipodi="http://sodipodi.sourceforge.net/DTD/sodipodi-0.dtd"
   xmlns:inkscape="http://www.inkscape.org/namespaces/inkscape"
   viewBox="0 0 640 640"
   version="1.1"
   id="svg385"
   sodipodi:docname="volume-muted.svg"
   inkscape:version="1.0.1 (3bc2e813f5, 2020-09-07, custom)"
   width="640"
   height="640">
  <metadata
     id="metadata391">
    <rdf:RDF>
      <cc:Work
         rdf:about="">
        <dc:format>image/svg+xml</dc:format>
        <dc:type
           rdf:resource="http://purl.org/dc/dcmitype/StillImage" />
        <dc:title></dc:title>
      </cc:Work>
    </rdf:RDF>
  </metadata>
  <defs
     id="defs389" />
  <sodipodi:namedview
     pagecolor="#ffffff"
     bordercolor="#666666"
     borderopacity="1"
     objecttolerance="10"
     gridtolerance="10"
     guidetolerance="10"
     inkscape:pageopacity="0"
     inkscape:pageshadow="2"
     inkscape:window-width="1920"
     inkscape:window-height="1018"
     id="namedview387"
     showgrid="false"
     inkscape:zoom="1"
     inkscape:cx="320"
     inkscape:cy="297.83673"
     inkscape:window-x="0"
     inkscape:window-y="0"
     inkscape:window-maximized="1"
     inkscape:current-layer="svg385"
     inkscape:document-rotation="0" />
  <path
     d="m 633.81902,522.09788 -69,-53.33 c 27.6,-43.97 43.18,-95.09 43.18,-148.77 0,-95.33 -47.73,-183.58 -127.65,-236.030002 -11.17,-7.33 -26.18,-4.24 -33.51,6.95 -7.34,11.170002 -4.22,26.180002 6.95,33.510002 66.27,43.49 105.82,116.6 105.82,195.58 0,42.78 -11.96,83.59 -33.22,119.06 l -38.12,-29.46 c 15.22,-26.93 23.73,-57.55 23.73,-89.61 0,-63.09 -32.06,-122.09 -85.77,-156.16 -11.19,-7.09 -26.03,-3.8 -33.12,7.41 -7.09,11.2 -3.78,26.03 7.41,33.13 39.75,25.21 63.48,69.06 63.48,115.62 0,21.21 -5.03,41.57 -14.2,59.88 l -39.56,-30.58 c 3.38,-9.35 5.76,-19.07 5.76,-29.3 0,-31.88 -17.53,-61.33 -45.77,-76.88 -11.58,-6.33 -26.19,-2.16 -32.61,9.45 -6.39,11.61 -2.16,26.2 9.45,32.61 11.76,6.46 19.12,18.18 20.4,31.06 l -79.47,-61.42 v -102.8 c 0,-21.46 -25.96,-31.98 -40.97,-16.97 l -49.71,49.7 L 45.469017,67.367878 c -6.98,-5.42 -17.04,-4.17 -22.46,2.81 l -19.6400001,25.27 c -5.42,6.970002 -4.16999999,17.020002 2.81,22.450002 l 588.3600031,454.73 c 6.98,5.43 17.03,4.17 22.46,-2.81 l 19.64,-25.27 c 5.41,-6.97 4.16,-17.02 -2.82,-22.45 z m -601.820003,-274.1 v 144 c 0,13.25 10.74,24 24,24 H 158.05902 l 88.97,88.95 c 15.03,15.03 40.97,4.47 40.97,-16.97 v -71.38 l -244.240003,-188.76 c -6.9,4.21 -11.76,11.48 -11.76,20.16 z"
     id="path383"
     style="fill:#ffffff" />
</svg>
