<?xml version="1.0" encoding="UTF-8" standalone="no"?>
<svg
   xmlns:dc="http://purl.org/dc/elements/1.1/"
   xmlns:cc="http://creativecommons.org/ns#"
   xmlns:rdf="http://www.w3.org/1999/02/22-rdf-syntax-ns#"
   xmlns:svg="http://www.w3.org/2000/svg"
   xmlns="http://www.w3.org/2000/svg"
   xmlns:sodipodi="http://sodipodi.sourceforge.net/DTD/sodipodi-0.dtd"
   xmlns:inkscape="http://www.inkscape.org/namespaces/inkscape"
   viewBox="0 0 640 640"
   version="1.1"
   id="svg462"
   sodipodi:docname="volume-source-muted.svg"
   inkscape:version="1.0.1 (3bc2e813f5, 2020-09-07, custom)"
   width="640"
   height="640">
  <metadata
     id="metadata468">
    <rdf:RDF>
      <cc:Work
         rdf:about="">
        <dc:format>image/svg+xml</dc:format>
        <dc:type
           rdf:resource="http://purl.org/dc/dcmitype/StillImage" />
        <dc:title></dc:title>
      </cc:Work>
    </rdf:RDF>
  </metadata>
  <defs
     id="defs466" />
  <sodipodi:namedview
     pagecolor="#ffffff"
     bordercolor="#666666"
     borderopacity="1"
     objecttolerance="10"
     gridtolerance="10"
     guidetolerance="10"
     inkscape:pageopacity="0"
     inkscape:pageshadow="2"
     inkscape:window-width="1920"
     inkscape:window-height="1018"
     id="namedview464"
     showgrid="false"
     inkscape:zoom="1.53125"
     inkscape:cx="320"
     inkscape:cy="256"
     inkscape:window-x="0"
     inkscape:window-y="0"
     inkscape:window-maximized="1"
     inkscape:current-layer="svg462" />
  <path
     d="m 633.81902,522.09832 -157.8,-121.96 c 12.59,-24.01 19.98,-51.13 19.98,-80.14 v -48 c 0,-8.84 -7.16,-16 -16,-16 h -16 c -8.84,0 -16,7.16 -16,16 v 48 c 0,17.92 -3.96,34.8 -10.72,50.2 l -26.55,-20.52 c 3.1,-9.4 5.28,-19.22 5.28,-29.67 v -160.01 c 0,-53.02 -42.98,-95.999999 -96,-95.999999 -53.02,0 -96,42.979999 -96,95.999999 v 45.36 L 45.469017,67.368321 c -6.98,-5.42 -17.04,-4.17 -22.46,2.81 l -19.6400001,25.27 c -5.42,6.969999 -4.16999999,17.019999 2.81,22.449999 l 588.3600031,454.73 c 6.98,5.43 17.03,4.17 22.46,-2.81 l 19.64,-25.27 c 5.41,-6.97 4.16,-17.02 -2.82,-22.45 z m -233.82,5.9 h -56 v -33.77 c 11.66,-1.6 22.85,-4.54 33.67,-8.31 l -50.11,-38.73 c -6.71,0.4 -13.41,0.87 -20.35,0.2 -55.85,-5.45 -98.74,-48.63 -111.18,-101.85 l -52.03,-40.23 v 6.85 c 0,89.64 63.97,169.55 152,181.69 v 34.15 h -56 c -8.84,0 -16,7.16 -16,16 v 16 c 0,8.84 7.16,16 16,16 h 160 c 8.84,0 16,-7.16 16,-16 v -16 c 0,-8.84 -7.16,-16 -16,-16 z"
     id="path460"
     style="fill:#ffffff" />
</svg>
